<svg xmlns="http://www.w3.org/2000/svg" width="1000" height="1000" viewBox="0 0 1000 1000" role="img" aria-labelledby="css-logo-title css-logo-description">
  <title id="css-logo-title">CSS Logo</title>
  <desc id="css-logo-description">A purple square with rounded corners and the letters CSS inside in white</desc>
  <path fill="#639" d="M0 0h840c88 0 160 72 160 160v680c0 88-72 160-160 160H160C72 1000 0 928 0 840V0Z"/>
  <path fill="#fff" d="M816 920c-69 0-99-44-101-112h70c0 32 11 49 33 49 11 0 18-3 23-10 8-13 10-49-2-63-13-16-38-24-55-33-48-23-65-48-65-102-1-138 202-138 196 7h-67c1-11-2-24-7-34-3-8-11-12-22-12-19 0-29 12-29 35-1 24 13 38 32 45 30 12 67 31 80 54 41 71 12 181-86 176Zm-224 0c-69 0-100-42-101-112h69c1 34 12 49 33 49 11 0 19-3 23-10 9-13 10-49-2-63-12-16-37-24-55-33-47-23-64-48-65-102-1-139 204-137 197 7h-67c0-11-2-24-7-34-4-8-11-12-22-12-20 0-30 12-30 35-1 24 13 38 33 45 29 12 66 31 80 54 40 71 12 181-86 176Zm-234 0c-64 0-104-36-103-102V650c0-33 10-59 29-76 71-56 187-25 181 82h-74c0-19-4-32-18-40-13-6-32-1-38 10-5 12-7 24-6 37v145c0 30 10 46 32 46 10 0 17-3 22-11 7-10 9-22 8-35h74c4 67-42 114-107 112Z"/>
</svg>